<svg xmlns="http://www.w3.org/2000/svg" height="256" width="256" viewBox="0 0 49 49" role="img"><path fill="#FFFFFF" d="M0,0 h49v49H0z" shape-rendering="crispEdges"/><path fill="#000000" d="M0 0h7v1H0zM8 0h1v1H8zM12 0h1v1H12zM15 0h1v1H15zM17 0h1v1H17zM20 0h3v1H20zM29 0h4v1H29zM34 0h1v1H34zM40 0h1v1H40zM42,0 h7v1H42zM0 1h1v1H0zM6 1h1v1H6zM10 1h2v1H10zM16 1h1v1H16zM18 1h1v1H18zM25 1h1v1H25zM27 1h2v1H27zM31 1h2v1H31zM34 1h2v1H34zM38 1h3v1H38zM42 1h1v1H42zM48,1 h1v1H48zM0 2h1v1H0zM2 2h3v1H2zM6 2h1v1H6zM8 2h2v1H8zM14 2h2v1H14zM18 2h1v1H18zM21 2h2v1H21zM24 2h1v1H24zM26 2h1v1H26zM29 2h2v1H29zM33 2h1v1H33zM39 2h2v1H39zM42 2h1v1H42zM44 2h3v1H44zM48,2 h1v1H48zM0 3h1v1H0zM2 3h3v1H2zM6 3h1v1H6zM10 3h4v1H10zM16 3h1v1H16zM20 3h5v1H20zM26 3h2v1H26zM29 3h1v1H29zM31 3h2v1H31zM35 3h3v1H35zM39 3h1v1H39zM42 3h1v1H42zM44 3h3v1H44zM48,3 h1v1H48zM0 4h1v1H0zM2 4h3v1H2zM6 4h1v1H6zM8 4h1v1H8zM12 4h3v1H12zM18 4h2v1H18zM22 4h9v1H22zM35 4h3v1H35zM42 4h1v1H42zM44 4h3v1H44zM48,4 h1v1H48zM0 5h1v1H0zM6 5h1v1H6zM11 5h1v1H11zM19 5h1v1H19zM21 5h2v1H21zM26 5h2v1H26zM29 5h2v1H29zM32 5h1v1H32zM34 5h3v1H34zM38 5h1v1H38zM42 5h1v1H42zM48,5 h1v1H48zM0 6h7v1H0zM8 6h1v1H8zM10 6h1v1H10zM12 6h1v1H12zM14 6h1v1H14zM16 6h1v1H16zM18 6h1v1H18zM20 6h1v1H20zM22 6h1v1H22zM24 6h1v1H24zM26 6h1v1H26zM28 6h1v1H28zM30 6h1v1H30zM32 6h1v1H32zM34 6h1v1H34zM36 6h1v1H36zM38 6h1v1H38zM40 6h1v1H40zM42,6 h7v1H42zM8 7h3v1H8zM12 7h1v1H12zM14 7h4v1H14zM19 7h2v1H19zM22 7h1v1H22zM26 7h1v1H26zM29 7h1v1H29zM32 7h3v1H32zM36 7h1v1H36zM5 8h2v1H5zM9 8h1v1H9zM11 8h1v1H11zM13 8h1v1H13zM15 8h2v1H15zM18 8h2v1H18zM22 8h5v1H22zM28 8h2v1H28zM35 8h1v1H35zM37 8h4v1H37zM42 8h1v1H42zM44 8h1v1H44zM46 8h1v1H46zM48,8 h1v1H48zM0 9h1v1H0zM2 9h1v1H2zM5 9h1v1H5zM8 9h2v1H8zM11 9h1v1H11zM15 9h1v1H15zM17 9h4v1H17zM22 9h2v1H22zM25 9h1v1H25zM27 9h1v1H27zM29 9h1v1H29zM31 9h1v1H31zM33 9h2v1H33zM37 9h6v1H37zM44 9h1v1H44zM47 9h1v1H47zM1 10h2v1H1zM5 10h2v1H5zM12 10h3v1H12zM17 10h2v1H17zM20 10h5v1H20zM27 10h4v1H27zM32 10h2v1H32zM35 10h1v1H35zM38 10h2v1H38zM45,10 h4v1H45zM0 11h1v1H0zM3 11h2v1H3zM7 11h2v1H7zM10 11h1v1H10zM12 11h2v1H12zM15 11h1v1H15zM22 11h2v1H22zM26 11h1v1H26zM28 11h1v1H28zM30 11h3v1H30zM34 11h1v1H34zM36 11h2v1H36zM39 11h4v1H39zM44 11h2v1H44zM47,11 h2v1H47zM0 12h7v1H0zM9 12h2v1H9zM12 12h3v1H12zM16 12h2v1H16zM19 12h2v1H19zM23 12h1v1H23zM26 12h2v1H26zM29 12h1v1H29zM32 12h1v1H32zM34 12h1v1H34zM36 12h2v1H36zM39 12h1v1H39zM43 12h2v1H43zM48,12 h1v1H48zM0 13h1v1H0zM3 13h1v1H3zM8 13h3v1H8zM12 13h2v1H12zM15 13h4v1H15zM20 13h1v1H20zM22 13h4v1H22zM27 13h5v1H27zM33 13h1v1H33zM36 13h2v1H36zM42 13h1v1H42zM0 14h2v1H0zM3 14h1v1H3zM5 14h3v1H5zM11 14h1v1H11zM13 14h1v1H13zM15 14h1v1H15zM18 14h1v1H18zM20 14h1v1H20zM22 14h1v1H22zM24 14h3v1H24zM28 14h2v1H28zM31 14h2v1H31zM37 14h1v1H37zM39 14h3v1H39zM43 14h2v1H43zM46,14 h3v1H46zM0 15h1v1H0zM2 15h1v1H2zM7 15h1v1H7zM9 15h2v1H9zM12 15h2v1H12zM15 15h1v1H15zM17 15h3v1H17zM23 15h1v1H23zM25 15h1v1H25zM29 15h1v1H29zM34 15h2v1H34zM37 15h1v1H37zM41 15h2v1H41zM45 15h3v1H45zM0 16h2v1H0zM4 16h6v1H4zM11 16h2v1H11zM17 16h1v1H17zM19 16h1v1H19zM21 16h1v1H21zM23 16h1v1H23zM25 16h2v1H25zM29 16h1v1H29zM31 16h2v1H31zM36 16h2v1H36zM39 16h5v1H39zM45 16h3v1H45zM0 17h1v1H0zM3 17h1v1H3zM9 17h1v1H9zM16 17h1v1H16zM18 17h1v1H18zM20 17h1v1H20zM23 17h2v1H23zM27 17h3v1H27zM36 17h2v1H36zM41 17h4v1H41zM46 17h1v1H46zM4 18h3v1H4zM8 18h3v1H8zM12 18h1v1H12zM16 18h2v1H16zM23 18h1v1H23zM26 18h6v1H26zM34 18h1v1H34zM36 18h3v1H36zM40 18h2v1H40zM45,18 h4v1H45zM1 19h1v1H1zM3 19h2v1H3zM7 19h5v1H7zM13 19h1v1H13zM16 19h1v1H16zM18 19h1v1H18zM20 19h4v1H20zM26 19h2v1H26zM29 19h1v1H29zM35 19h1v1H35zM37 19h2v1H37zM40 19h1v1H40zM42 19h4v1H42zM48,19 h1v1H48zM0 20h2v1H0zM3 20h4v1H3zM8 20h1v1H8zM11 20h2v1H11zM14 20h5v1H14zM21 20h3v1H21zM25 20h2v1H25zM30 20h3v1H30zM35 20h4v1H35zM42 20h2v1H42zM46 20h1v1H46zM0 21h2v1H0zM3 21h1v1H3zM7 21h2v1H7zM12 21h1v1H12zM14 21h2v1H14zM17 21h5v1H17zM23 21h1v1H23zM25 21h3v1H25zM33 21h4v1H33zM38 21h5v1H38zM44 21h2v1H44zM0 22h2v1H0zM3 22h8v1H3zM12 22h1v1H12zM14 22h2v1H14zM20 22h1v1H20zM22 22h6v1H22zM29 22h2v1H29zM32 22h1v1H32zM34 22h3v1H34zM38,22 h11v1H38zM0 23h2v1H0zM3 23h2v1H3zM8 23h2v1H8zM12 23h1v1H12zM14 23h1v1H14zM18 23h1v1H18zM20 23h3v1H20zM26 23h1v1H26zM28 23h2v1H28zM33 23h2v1H33zM37 23h1v1H37zM40 23h1v1H40zM44 23h2v1H44zM47 23h1v1H47zM0 24h2v1H0zM3 24h2v1H3zM6 24h1v1H6zM8 24h5v1H8zM14 24h2v1H14zM19 24h4v1H19zM24 24h1v1H24zM26 24h1v1H26zM28 24h1v1H28zM34 24h1v1H34zM36 24h1v1H36zM38 24h3v1H38zM42 24h1v1H42zM44 24h2v1H44zM0 25h1v1H0zM2 25h1v1H2zM4 25h1v1H4zM8 25h1v1H8zM11 25h1v1H11zM13 25h2v1H13zM18 25h1v1H18zM22 25h1v1H22zM26 25h2v1H26zM29 25h2v1H29zM32 25h1v1H32zM35 25h1v1H35zM40 25h1v1H40zM44 25h1v1H44zM48,25 h1v1H48zM0 26h1v1H0zM2 26h1v1H2zM4 26h5v1H4zM10 26h4v1H10zM15 26h1v1H15zM19 26h2v1H19zM22 26h5v1H22zM28 26h2v1H28zM31 26h4v1H31zM36 26h1v1H36zM38 26h7v1H38zM46,26 h3v1H46zM0 27h2v1H0zM7 27h1v1H7zM10 27h2v1H10zM14 27h1v1H14zM16 27h2v1H16zM21 27h3v1H21zM25 27h3v1H25zM33 27h2v1H33zM39 27h1v1H39zM41 27h1v1H41zM43 27h5v1H43zM2 28h2v1H2zM6 28h4v1H6zM12 28h2v1H12zM16 28h3v1H16zM20 28h2v1H20zM23 28h6v1H23zM30 28h2v1H30zM35 28h3v1H35zM39 28h3v1H39zM44,28 h5v1H44zM0 29h2v1H0zM3 29h1v1H3zM7 29h1v1H7zM9 29h1v1H9zM11 29h1v1H11zM13 29h1v1H13zM23 29h1v1H23zM28 29h1v1H28zM30 29h1v1H30zM33 29h1v1H33zM35 29h1v1H35zM37 29h1v1H37zM41 29h1v1H41zM43 29h1v1H43zM45 29h1v1H45zM48,29 h1v1H48zM1 30h1v1H1zM3 30h1v1H3zM6 30h3v1H6zM10 30h3v1H10zM18 30h1v1H18zM25 30h2v1H25zM29 30h1v1H29zM31 30h1v1H31zM35 30h2v1H35zM39 30h1v1H39zM42 30h2v1H42zM48,30 h1v1H48zM2 31h2v1H2zM5 31h1v1H5zM8 31h2v1H8zM12 31h1v1H12zM14 31h1v1H14zM16 31h1v1H16zM19 31h1v1H19zM21 31h4v1H21zM26 31h1v1H26zM29 31h3v1H29zM36 31h2v1H36zM39 31h2v1H39zM43 31h2v1H43zM47,31 h2v1H47zM0 32h2v1H0zM5 32h2v1H5zM8 32h1v1H8zM11 32h1v1H11zM13 32h2v1H13zM16 32h2v1H16zM20 32h2v1H20zM24 32h4v1H24zM34 32h1v1H34zM36 32h2v1H36zM39 32h3v1H39zM44 32h1v1H44zM46 32h1v1H46zM2 33h2v1H2zM5 33h1v1H5zM7 33h1v1H7zM11 33h1v1H11zM13 33h1v1H13zM16 33h1v1H16zM18 33h1v1H18zM23 33h2v1H23zM28 33h1v1H28zM31 33h9v1H31zM41 33h1v1H41zM43 33h4v1H43zM1 34h2v1H1zM5 34h3v1H5zM10 34h1v1H10zM13 34h1v1H13zM18 34h2v1H18zM22 34h1v1H22zM29 34h2v1H29zM33 34h2v1H33zM38 34h2v1H38zM41 34h2v1H41zM45,34 h4v1H45zM1 35h1v1H1zM7 35h2v1H7zM13 35h1v1H13zM15 35h1v1H15zM18 35h1v1H18zM20 35h1v1H20zM22 35h2v1H22zM26 35h4v1H26zM31 35h1v1H31zM34 35h4v1H34zM39 35h3v1H39zM43 35h1v1H43zM47,35 h2v1H47zM0 36h1v1H0zM4 36h3v1H4zM8 36h2v1H8zM12 36h1v1H12zM15 36h2v1H15zM18 36h1v1H18zM20 36h6v1H20zM27 36h1v1H27zM29 36h1v1H29zM32 36h1v1H32zM34 36h1v1H34zM36 36h1v1H36zM39 36h1v1H39zM47 36h1v1H47zM0 37h5v1H0zM8 37h3v1H8zM12 37h1v1H12zM19 37h1v1H19zM21 37h3v1H21zM26 37h2v1H26zM32 37h2v1H32zM36 37h2v1H36zM39 37h2v1H39zM42 37h2v1H42zM45 37h1v1H45zM1 38h1v1H1zM5 38h2v1H5zM11 38h1v1H11zM13 38h1v1H13zM16 38h1v1H16zM18 38h1v1H18zM20 38h2v1H20zM23 38h3v1H23zM27 38h4v1H27zM39 38h7v1H39zM47,38 h2v1H47zM1 39h3v1H1zM8 39h1v1H8zM10 39h2v1H10zM13 39h4v1H13zM18 39h1v1H18zM21 39h1v1H21zM23 39h1v1H23zM27 39h4v1H27zM32 39h2v1H32zM37 39h4v1H37zM43 39h1v1H43zM45 39h2v1H45zM48,39 h1v1H48zM0 40h3v1H0zM6 40h2v1H6zM9 40h1v1H9zM15 40h2v1H15zM21 40h7v1H21zM29 40h3v1H29zM33 40h4v1H33zM39 40h9v1H39zM8 41h2v1H8zM11 41h3v1H11zM15 41h2v1H15zM18 41h2v1H18zM22 41h1v1H22zM26 41h1v1H26zM28 41h1v1H28zM33 41h5v1H33zM39 41h2v1H39zM44 41h2v1H44zM0 42h7v1H0zM9 42h2v1H9zM17 42h2v1H17zM21 42h2v1H21zM24 42h1v1H24zM26 42h2v1H26zM31 42h1v1H31zM33 42h3v1H33zM37 42h2v1H37zM40 42h1v1H40zM42 42h1v1H42zM44 42h3v1H44zM48,42 h1v1H48zM0 43h1v1H0zM6 43h1v1H6zM8 43h1v1H8zM10 43h1v1H10zM12 43h1v1H12zM15 43h3v1H15zM21 43h2v1H21zM26 43h1v1H26zM28 43h1v1H28zM30 43h1v1H30zM32 43h1v1H32zM37 43h2v1H37zM40 43h1v1H40zM44 43h2v1H44zM47 43h1v1H47zM0 44h1v1H0zM2 44h3v1H2zM6 44h1v1H6zM9 44h3v1H9zM14 44h3v1H14zM20 44h1v1H20zM22 44h8v1H22zM31 44h1v1H31zM33 44h12v1H33zM46 44h1v1H46zM48,44 h1v1H48zM0 45h1v1H0zM2 45h3v1H2zM6 45h1v1H6zM12 45h2v1H12zM16 45h1v1H16zM18 45h2v1H18zM21 45h1v1H21zM23 45h2v1H23zM26 45h3v1H26zM30 45h1v1H30zM33 45h2v1H33zM36 45h3v1H36zM42 45h1v1H42zM45 45h2v1H45zM48,45 h1v1H48zM0 46h1v1H0zM2 46h3v1H2zM6 46h1v1H6zM9 46h1v1H9zM14 46h2v1H14zM18 46h1v1H18zM20 46h2v1H20zM24 46h2v1H24zM27 46h1v1H27zM29 46h3v1H29zM33 46h6v1H33zM42 46h2v1H42zM46,46 h3v1H46zM0 47h1v1H0zM6 47h1v1H6zM9 47h2v1H9zM13 47h1v1H13zM16 47h4v1H16zM21 47h2v1H21zM24 47h4v1H24zM32 47h3v1H32zM37 47h2v1H37zM40 47h1v1H40zM42 47h2v1H42zM45 47h1v1H45zM48,47 h1v1H48zM0 48h7v1H0zM9 48h1v1H9zM11 48h7v1H11zM21 48h1v1H21zM24 48h1v1H24zM27 48h1v1H27zM29 48h2v1H29zM32 48h1v1H32zM36 48h2v1H36zM39 48h1v1H39zM43 48h3v1H43zM48,48 h1v1H48z" shape-rendering="crispEdges"/></svg>