<svg xmlns="http://www.w3.org/2000/svg" height="256" width="256" viewBox="0 0 33 33" role="img"><path fill="#FFFFFF" d="M0,0 h33v33H0z" shape-rendering="crispEdges"/><path fill="#000000" d="M0 0h7v1H0zM11 0h2v1H11zM16 0h3v1H16zM20 0h3v1H20zM24 0h1v1H24zM26,0 h7v1H26zM0 1h1v1H0zM6 1h1v1H6zM9 1h3v1H9zM16 1h3v1H16zM20 1h1v1H20zM22 1h1v1H22zM24 1h1v1H24zM26 1h1v1H26zM32,1 h1v1H32zM0 2h1v1H0zM2 2h3v1H2zM6 2h1v1H6zM8 2h1v1H8zM12 2h1v1H12zM16 2h6v1H16zM23 2h2v1H23zM26 2h1v1H26zM28 2h3v1H28zM32,2 h1v1H32zM0 3h1v1H0zM2 3h3v1H2zM6 3h1v1H6zM8 3h3v1H8zM13 3h3v1H13zM17 3h1v1H17zM19 3h3v1H19zM23 3h1v1H23zM26 3h1v1H26zM28 3h3v1H28zM32,3 h1v1H32zM0 4h1v1H0zM2 4h3v1H2zM6 4h1v1H6zM9 4h2v1H9zM12 4h2v1H12zM15 4h1v1H15zM17 4h2v1H17zM20 4h1v1H20zM24 4h1v1H24zM26 4h1v1H26zM28 4h3v1H28zM32,4 h1v1H32zM0 5h1v1H0zM6 5h1v1H6zM9 5h1v1H9zM13 5h1v1H13zM16 5h1v1H16zM23 5h2v1H23zM26 5h1v1H26zM32,5 h1v1H32zM0 6h7v1H0zM8 6h1v1H8zM10 6h1v1H10zM12 6h1v1H12zM14 6h1v1H14zM16 6h1v1H16zM18 6h1v1H18zM20 6h1v1H20zM22 6h1v1H22zM24 6h1v1H24zM26,6 h7v1H26zM11 7h3v1H11zM15 7h1v1H15zM20 7h1v1H20zM22 7h3v1H22zM3 8h2v1H3zM6 8h2v1H6zM9 8h1v1H9zM11 8h1v1H11zM14 8h1v1H14zM16 8h1v1H16zM18 8h1v1H18zM20 8h1v1H20zM22 8h1v1H22zM24 8h1v1H24zM29 8h2v1H29zM1 9h2v1H1zM7 9h1v1H7zM10 9h1v1H10zM12 9h2v1H12zM15 9h2v1H15zM19 9h1v1H19zM22 9h2v1H22zM25 9h1v1H25zM27 9h2v1H27zM31 9h1v1H31zM1 10h1v1H1zM3 10h1v1H3zM5 10h2v1H5zM8 10h3v1H8zM12 10h2v1H12zM15 10h3v1H15zM19 10h2v1H19zM22 10h2v1H22zM25 10h1v1H25zM27 10h1v1H27zM30,10 h3v1H30zM1 11h1v1H1zM3 11h2v1H3zM7 11h1v1H7zM9 11h4v1H9zM17 11h3v1H17zM22 11h1v1H22zM25 11h1v1H25zM27 11h2v1H27zM30,11 h3v1H30zM4 12h4v1H4zM15 12h1v1H15zM19 12h4v1H19zM24 12h1v1H24zM26 12h1v1H26zM29 12h1v1H29zM31,12 h2v1H31zM0 13h1v1H0zM2 13h2v1H2zM5 13h1v1H5zM10 13h2v1H10zM13 13h1v1H13zM15 13h2v1H15zM20 13h2v1H20zM23 13h1v1H23zM30 13h2v1H30zM0 14h2v1H0zM3 14h1v1H3zM6 14h1v1H6zM8 14h3v1H8zM14 14h1v1H14zM18 14h1v1H18zM24 14h1v1H24zM26 14h1v1H26zM29 14h2v1H29zM0 15h1v1H0zM3 15h3v1H3zM7 15h2v1H7zM17 15h3v1H17zM28,15 h5v1H28zM0 16h2v1H0zM3 16h1v1H3zM6 16h1v1H6zM8 16h1v1H8zM10 16h2v1H10zM13 16h1v1H13zM16 16h3v1H16zM20 16h1v1H20zM25 16h4v1H25zM32,16 h1v1H32zM4 17h2v1H4zM7 17h1v1H7zM9 17h3v1H9zM14 17h2v1H14zM18 17h2v1H18zM22 17h1v1H22zM24 17h1v1H24zM26 17h1v1H26zM28 17h2v1H28zM32,17 h1v1H32zM1 18h2v1H1zM6 18h2v1H6zM11 18h2v1H11zM14 18h3v1H14zM19 18h1v1H19zM21 18h3v1H21zM25 18h2v1H25zM29 18h2v1H29zM32,18 h1v1H32zM1 19h1v1H1zM3 19h1v1H3zM7 19h1v1H7zM9 19h1v1H9zM12 19h4v1H12zM17 19h1v1H17zM22 19h4v1H22zM27 19h1v1H27zM29 19h2v1H29zM32,19 h1v1H32zM1 20h1v1H1zM3 20h1v1H3zM6 20h1v1H6zM8 20h4v1H8zM15 20h2v1H15zM20 20h1v1H20zM25 20h1v1H25zM27 20h1v1H27zM29 20h1v1H29zM32,20 h1v1H32zM0 21h3v1H0zM4 21h1v1H4zM8 21h4v1H8zM13 21h1v1H13zM15 21h1v1H15zM18 21h1v1H18zM20 21h2v1H20zM23 21h3v1H23zM27 21h2v1H27zM30 21h1v1H30zM0 22h1v1H0zM6 22h5v1H6zM12 22h1v1H12zM14 22h1v1H14zM16 22h1v1H16zM22 22h3v1H22zM26 22h1v1H26zM29 22h1v1H29zM31,22 h2v1H31zM0 23h1v1H0zM3 23h1v1H3zM5 23h1v1H5zM8 23h2v1H8zM11 23h2v1H11zM14 23h3v1H14zM18 23h2v1H18zM23 23h2v1H23zM27 23h2v1H27zM30,23 h3v1H30zM0 24h2v1H0zM3 24h4v1H3zM9 24h1v1H9zM13 24h3v1H13zM19 24h1v1H19zM23 24h6v1H23zM31,24 h2v1H31zM8 25h1v1H8zM18 25h2v1H18zM21 25h1v1H21zM24 25h1v1H24zM28 25h2v1H28zM31 25h1v1H31zM0 26h7v1H0zM8 26h1v1H8zM10 26h3v1H10zM15 26h1v1H15zM17 26h1v1H17zM23 26h2v1H23zM26 26h1v1H26zM28 26h1v1H28zM0 27h1v1H0zM6 27h1v1H6zM9 27h1v1H9zM12 27h1v1H12zM15 27h2v1H15zM19 27h1v1H19zM21 27h4v1H21zM28 27h4v1H28zM0 28h1v1H0zM2 28h3v1H2zM6 28h1v1H6zM8 28h1v1H8zM11 28h1v1H11zM14 28h2v1H14zM19 28h1v1H19zM21 28h9v1H21zM31 28h1v1H31zM0 29h1v1H0zM2 29h3v1H2zM6 29h1v1H6zM8 29h1v1H8zM11 29h1v1H11zM16 29h2v1H16zM19 29h2v1H19zM22 29h1v1H22zM25 29h1v1H25zM27 29h1v1H27zM30 29h1v1H30zM32,29 h1v1H32zM0 30h1v1H0zM2 30h3v1H2zM6 30h1v1H6zM9 30h1v1H9zM13 30h1v1H13zM15 30h4v1H15zM21 30h1v1H21zM23 30h2v1H23zM28,30 h5v1H28zM0 31h1v1H0zM6 31h1v1H6zM10 31h1v1H10zM12 31h1v1H12zM15 31h4v1H15zM20 31h2v1H20zM25 31h2v1H25zM29,31 h4v1H29zM0 32h7v1H0zM9 32h3v1H9zM13 32h5v1H13zM20 32h1v1H20zM22 32h3v1H22zM26 32h1v1H26zM28 32h2v1H28z" shape-rendering="crispEdges"/></svg>